<svg width="22" height="18" viewBox="0 0 22 18" fill="white" xmlns="http://www.w3.org/2000/svg">
<path d="M3.53748 7.5C4.70955 7.5 5.66248 6.37891 5.66248 5C5.66248 3.62109 4.70955 2.5 3.53748 2.5C2.36541 2.5 1.41248 3.62109 1.41248 5C1.41248 6.37891 2.36541 7.5 3.53748 7.5ZM18.4125 7.5C19.5845 7.5 20.5375 6.37891 20.5375 5C20.5375 3.62109 19.5845 2.5 18.4125 2.5C17.2404 2.5 16.2875 3.62109 16.2875 5C16.2875 6.37891 17.2404 7.5 18.4125 7.5ZM19.475 8.75H17.35C16.7656 8.75 16.2377 9.02734 15.8525 9.47656C17.1906 10.3398 18.1402 11.8984 18.3461 13.75H20.5375C21.1252 13.75 21.6 13.1914 21.6 12.5V11.25C21.6 9.87109 20.647 8.75 19.475 8.75ZM10.975 8.75C13.0302 8.75 14.6937 6.79297 14.6937 4.375C14.6937 1.95703 13.0302 0 10.975 0C8.9197 0 7.25623 1.95703 7.25623 4.375C7.25623 6.79297 8.9197 8.75 10.975 8.75ZM13.525 10H13.2494C12.5588 10.3906 11.7918 10.625 10.975 10.625C10.1582 10.625 9.39451 10.3906 8.70056 10H8.42498C6.31326 10 4.59998 12.0156 4.59998 14.5V15.625C4.59998 16.6602 5.31384 17.5 6.19373 17.5H15.7562C16.6361 17.5 17.35 16.6602 17.35 15.625V14.5C17.35 12.0156 15.6367 10 13.525 10ZM6.09744 9.47656C5.71228 9.02734 5.18435 8.75 4.59998 8.75H2.47498C1.30291 8.75 0.349976 9.87109 0.349976 11.25V12.5C0.349976 13.1914 0.82478 13.75 1.41248 13.75H3.60056C3.80974 11.8984 4.75935 10.3398 6.09744 9.47656Z" fill-opacity="0.8"/>
</svg>
