<svg width="22" height="18" viewBox="0 0 22 18" fill="white" xmlns="http://www.w3.org/2000/svg">
<path d="M18.2 7.60156C18.3361 7.18359 18.4125 6.72656 18.4125 6.25C18.4125 4.17969 16.9847 2.5 15.225 2.5C14.5709 2.5 13.9599 2.73438 13.4552 3.13281C12.5355 1.25781 10.8189 0 8.84998 0C5.91482 0 3.53748 2.79688 3.53748 6.25C3.53748 6.35547 3.5408 6.46094 3.54412 6.56641C1.68474 7.33594 0.349976 9.42188 0.349976 11.875C0.349976 14.9805 2.49158 17.5 5.13123 17.5H17.35C19.6974 17.5 21.6 15.2617 21.6 12.5C21.6 10.082 20.139 8.0625 18.2 7.60156ZM13.7873 11.0664L10.2877 15.1836C10.0818 15.4258 9.74314 15.4258 9.53728 15.1836L6.03767 11.0664C5.70232 10.6719 5.94138 10 6.41287 10H8.58435V5.625C8.58435 5.28125 8.82341 5 9.1156 5H10.7094C11.0015 5 11.2406 5.28125 11.2406 5.625V10H13.4121C13.8836 10 14.1226 10.6719 13.7873 11.0664Z" fill-opacity="0.8"/>
</svg>
