<svg width="22" height="20" viewBox="0 0 22 20" fill="none" xmlns="http://www.w3.org/2000/svg">
<path d="M10.8441 5.04384L4.04222 11.6345V18.7478C4.04222 18.932 4.10441 19.1086 4.21511 19.2389C4.32581 19.3691 4.47595 19.4423 4.6325 19.4423L8.76665 19.4297C8.9227 19.4288 9.07208 19.3552 9.18214 19.2251C9.2922 19.0949 9.35398 18.9188 9.35398 18.7352V14.5812C9.35398 14.397 9.41617 14.2204 9.52687 14.0901C9.63757 13.9599 9.78771 13.8867 9.94426 13.8867H12.3054C12.4619 13.8867 12.6121 13.9599 12.7228 14.0901C12.8335 14.2204 12.8956 14.397 12.8956 14.5812V18.7322C12.8954 18.8236 12.9105 18.9141 12.9401 18.9986C12.9696 19.0831 13.013 19.1599 13.0679 19.2247C13.1227 19.2894 13.1879 19.3407 13.2596 19.3758C13.3313 19.4108 13.4083 19.4288 13.4859 19.4288L17.6186 19.4423C17.7752 19.4423 17.9253 19.3691 18.036 19.2389C18.1467 19.1086 18.2089 18.932 18.2089 18.7478V11.6298L11.4085 5.04384C11.3286 4.96802 11.229 4.92668 11.1263 4.92668C11.0236 4.92668 10.924 4.96802 10.8441 5.04384ZM21.5882 9.52344L18.504 6.53255V0.520833C18.504 0.3827 18.4574 0.250224 18.3744 0.152549C18.2913 0.0548735 18.1787 0 18.0613 0H15.9953C15.8779 0 15.7653 0.0548735 15.6823 0.152549C15.5993 0.250224 15.5526 0.3827 15.5526 0.520833V3.67231L12.2497 0.47526C11.9327 0.168394 11.5349 0.000613431 11.1244 0.000613431C10.7139 0.000613431 10.3162 0.168394 9.99923 0.47526L0.660666 9.52344C0.615837 9.56703 0.578748 9.62058 0.551519 9.68104C0.524289 9.7415 0.507453 9.80768 0.501971 9.8758C0.496489 9.94392 0.50247 10.0126 0.519571 10.078C0.536672 10.1434 0.564559 10.2042 0.601638 10.2569L1.54239 11.6024C1.57937 11.6553 1.62485 11.6991 1.67624 11.7313C1.72762 11.7635 1.7839 11.7835 1.84185 11.79C1.89979 11.7966 1.95827 11.7897 2.01394 11.7696C2.0696 11.7496 2.12136 11.7168 2.16624 11.6732L10.8441 3.26432C10.924 3.18851 11.0236 3.14717 11.1263 3.14717C11.229 3.14717 11.3286 3.18851 11.4085 3.26432L20.0867 11.6732C20.1315 11.7168 20.1832 11.7496 20.2388 11.7697C20.2944 11.7898 20.3528 11.7969 20.4107 11.7904C20.4686 11.784 20.5248 11.7642 20.5762 11.7321C20.6276 11.7001 20.6731 11.6565 20.7102 11.6037L21.6509 10.2582C21.688 10.2052 21.7158 10.1441 21.7327 10.0784C21.7496 10.0128 21.7553 9.94379 21.7494 9.8755C21.7436 9.80722 21.7264 9.74096 21.6987 9.68054C21.671 9.62012 21.6335 9.56673 21.5882 9.52344Z" fill="#E19A9A" fill-opacity="0.8"/>
</svg>
