<svg width="22" height="19" viewBox="0 0 22 19" fill="white" xmlns="http://www.w3.org/2000/svg">
<path d="M20.9774 10.2061L14.0048 18.4092C13.3822 19.1417 12.3031 18.629 12.3031 17.5792V12.8917H6.65857C6.10657 12.8917 5.66248 12.3692 5.66248 11.7198V7.03229C5.66248 6.38287 6.10657 5.86041 6.65857 5.86041H12.3031V1.17291C12.3031 0.127992 13.3781 -0.389587 14.0048 0.342835L20.9774 8.54596C21.3634 9.00494 21.3634 9.74713 20.9774 10.2061ZM8.31873 18.1651V16.212C8.31873 15.8897 8.0946 15.626 7.82068 15.626H4.33435C3.59973 15.626 3.00623 14.9278 3.00623 14.0635V4.68854C3.00623 3.82428 3.59973 3.12604 4.33435 3.12604H7.82068C8.0946 3.12604 8.31873 2.86237 8.31873 2.5401V0.586976C8.31873 0.26471 8.0946 0.0010385 7.82068 0.0010385H4.33435C2.13464 0.0010385 0.349976 2.10065 0.349976 4.68854V14.0635C0.349976 16.6514 2.13464 18.751 4.33435 18.751H7.82068C8.0946 18.751 8.31873 18.4874 8.31873 18.1651Z" fill-opacity="0.8"/>
</svg>
