<svg width="123" height="53" viewBox="0 0 123 53" fill="none" xmlns="http://www.w3.org/2000/svg">
<path d="M18.8182 48.337C19.0039 48.337 19.1545 48.4033 19.27 48.5359C19.3896 48.6644 19.4495 48.9007 19.4495 49.2447V51.6819H18.9729V49.3317C18.9729 49.1038 18.9585 48.9504 18.9296 48.8717C18.9007 48.7888 18.8306 48.7473 18.7192 48.7473C18.5088 48.7473 18.319 48.8779 18.1498 49.139V51.6819H17.6671V49.3317C17.6671 49.1038 17.6527 48.9504 17.6238 48.8717C17.5949 48.7888 17.5248 48.7473 17.4134 48.7473C17.203 48.7473 17.0132 48.8779 16.844 49.139V51.6819H16.3675V48.4054H16.7698L16.8069 48.7908C16.9059 48.6458 17.0091 48.5339 17.1163 48.4551C17.2277 48.3763 17.3598 48.337 17.5124 48.337C17.8177 48.337 18.0137 48.482 18.1003 48.7722C18.1994 48.6313 18.3046 48.5235 18.416 48.4489C18.5274 48.3743 18.6614 48.337 18.8182 48.337Z" fill="white"/>
<path d="M23.4635 50.9669C23.4635 51.0954 23.4841 51.1907 23.5254 51.2529C23.5667 51.3109 23.6347 51.3545 23.7296 51.3835L23.5997 51.7565C23.282 51.7151 23.0839 51.5596 23.0055 51.2902C22.89 51.4394 22.7436 51.5534 22.5661 51.6322C22.3929 51.7109 22.199 51.7503 21.9844 51.7503C21.6585 51.7503 21.4006 51.6591 21.2108 51.4767C21.0252 51.2944 20.9323 51.0498 20.9323 50.7431C20.9323 50.4074 21.0623 50.1483 21.3222 49.9659C21.5863 49.7835 21.9638 49.6924 22.4548 49.6924H22.9375V49.425C22.9375 49.1929 22.8715 49.0271 22.7394 48.9276C22.6074 48.824 22.4156 48.7722 22.1639 48.7722C21.9163 48.7722 21.6337 48.8281 21.316 48.9401L21.1737 48.5421C21.5574 48.4054 21.9143 48.337 22.2443 48.337C22.6404 48.337 22.9416 48.4302 23.1479 48.6168C23.3583 48.8033 23.4635 49.0623 23.4635 49.3939V50.9669ZM22.1144 51.3586C22.2753 51.3586 22.4279 51.3172 22.5723 51.2343C22.7209 51.1514 22.8426 51.0374 22.9375 50.8923V50.053H22.4671C22.1206 50.053 21.871 50.111 21.7183 50.2271C21.5656 50.3431 21.4893 50.513 21.4893 50.7369C21.4893 51.1514 21.6977 51.3586 22.1144 51.3586Z" fill="white"/>
<path d="M25.5776 48.4054H26.0232L26.0665 48.8654C26.1944 48.6996 26.3553 48.5712 26.5492 48.48C26.7473 48.3846 26.9453 48.337 27.1434 48.337C27.754 48.337 28.0593 48.6603 28.0593 49.3069V51.6819H27.5394V49.6924C27.5394 49.4478 27.525 49.2613 27.4961 49.1328C27.4714 49.0043 27.4198 48.909 27.3414 48.8468C27.263 48.7846 27.1434 48.7535 26.9824 48.7535C26.805 48.7535 26.6379 48.8074 26.4812 48.9152C26.3244 49.023 26.1965 49.1514 26.0975 49.3007V51.6819H25.5776V48.4054Z" fill="white"/>
<path d="M32.3704 50.9669C32.3704 51.0954 32.391 51.1907 32.4323 51.2529C32.4735 51.3109 32.5416 51.3545 32.6365 51.3835L32.5065 51.7565C32.1888 51.7151 31.9908 51.5596 31.9124 51.2902C31.7969 51.4394 31.6504 51.5534 31.473 51.6322C31.2997 51.7109 31.1058 51.7503 30.8913 51.7503C30.5653 51.7503 30.3075 51.6591 30.1177 51.4767C29.932 51.2944 29.8392 51.0498 29.8392 50.7431C29.8392 50.4074 29.9692 50.1483 30.2291 49.9659C30.4931 49.7835 30.8706 49.6924 31.3616 49.6924H31.8443V49.425C31.8443 49.1929 31.7783 49.0271 31.6463 48.9276C31.5143 48.824 31.3224 48.7722 31.0707 48.7722C30.8232 48.7722 30.5406 48.8281 30.2229 48.9401L30.0806 48.5421C30.4643 48.4054 30.8211 48.337 31.1512 48.337C31.5473 48.337 31.8485 48.4302 32.0547 48.6168C32.2652 48.8033 32.3704 49.0623 32.3704 49.3939V50.9669ZM31.0212 51.3586C31.1821 51.3586 31.3348 51.3172 31.4792 51.2343C31.6277 51.1514 31.7494 51.0374 31.8443 50.8923V50.053H31.374C31.0274 50.053 30.7778 50.111 30.6252 50.2271C30.4725 50.3431 30.3962 50.513 30.3962 50.7369C30.3962 51.1514 30.6045 51.3586 31.0212 51.3586Z" fill="white"/>
<path d="M37.2941 48.5546C37.1704 48.596 37.0363 48.623 36.8919 48.6354C36.7475 48.6437 36.5639 48.6478 36.3411 48.6478C36.7207 48.8219 36.9104 49.0976 36.9104 49.4747C36.9104 49.8063 36.8011 50.0758 36.5824 50.283C36.3638 50.4861 36.0647 50.5877 35.6851 50.5877C35.4912 50.5877 35.3282 50.5649 35.1962 50.5193C35.1467 50.5566 35.1054 50.6042 35.0724 50.6623C35.0435 50.7203 35.0291 50.7783 35.0291 50.8364C35.0291 51.0229 35.1735 51.1161 35.4623 51.1161H36.0502C36.2648 51.1161 36.4587 51.1555 36.632 51.2343C36.8094 51.3089 36.9476 51.4146 37.0466 51.5514C37.1497 51.6881 37.2013 51.8394 37.2013 52.0052C37.2013 52.3244 37.0652 52.5689 36.7929 52.7389C36.5247 52.913 36.143 53 35.648 53C35.1446 53 34.7898 52.9212 34.5835 52.7637C34.3772 52.6062 34.2741 52.3555 34.2741 52.0114H34.7444C34.7444 52.1482 34.7692 52.256 34.8187 52.3347C34.8723 52.4176 34.9631 52.4777 35.091 52.515C35.223 52.5565 35.4087 52.5772 35.648 52.5772C35.9986 52.5772 36.2565 52.5316 36.4215 52.4404C36.5907 52.3492 36.6753 52.2145 36.6753 52.0363C36.6753 51.8871 36.6072 51.771 36.471 51.6881C36.3349 51.6094 36.1595 51.57 35.945 51.57H35.3633C35.0951 51.57 34.8909 51.512 34.7506 51.3959C34.6103 51.2757 34.5402 51.1265 34.5402 50.9483C34.5402 50.8446 34.5711 50.7431 34.633 50.6436C34.6949 50.54 34.7836 50.4509 34.8991 50.3763C34.7135 50.2809 34.5752 50.1607 34.4845 50.0157C34.3978 49.8664 34.3545 49.6861 34.3545 49.4747C34.3545 49.2551 34.4082 49.0603 34.5154 48.8903C34.6268 48.7162 34.7795 48.5815 34.9734 48.4862C35.1714 48.3867 35.3983 48.337 35.6541 48.337C36.0255 48.337 36.3081 48.3162 36.502 48.2748C36.6959 48.2333 36.9084 48.1629 37.1394 48.0634L37.2941 48.5546ZM35.648 48.7224C35.3963 48.7224 35.2065 48.7908 35.0786 48.9276C34.9507 49.0603 34.8867 49.2426 34.8867 49.4747C34.8867 49.7069 34.9507 49.8934 35.0786 50.0343C35.2106 50.1711 35.4045 50.2395 35.6603 50.2395C35.8914 50.2395 36.0667 50.1732 36.1864 50.0405C36.3101 49.9037 36.372 49.7131 36.372 49.4685C36.372 48.9711 36.1307 48.7224 35.648 48.7224Z" fill="white"/>
<path d="M39.3526 50.2271C39.3649 50.5877 39.4578 50.8592 39.631 51.0415C39.8085 51.2239 40.0312 51.3151 40.2994 51.3151C40.4603 51.3151 40.6068 51.2923 40.7388 51.2467C40.875 51.197 41.0194 51.1224 41.172 51.0229L41.4134 51.371C41.2607 51.4912 41.0854 51.5845 40.8873 51.6508C40.6934 51.7171 40.4975 51.7503 40.2994 51.7503C39.8291 51.7503 39.4619 51.5969 39.1978 51.2902C38.9379 50.9794 38.8079 50.5649 38.8079 50.0467C38.8079 49.7193 38.8657 49.4271 38.9812 49.1701C39.0968 48.909 39.2618 48.7059 39.4763 48.5608C39.6909 48.4116 39.9405 48.337 40.2252 48.337C40.6377 48.337 40.9616 48.482 41.1968 48.7722C41.4361 49.0582 41.5557 49.4499 41.5557 49.9473C41.5557 50.0426 41.5516 50.1359 41.5433 50.2271H39.3526ZM40.2313 48.766C39.9797 48.766 39.7754 48.8572 39.6187 49.0395C39.4619 49.2178 39.3732 49.481 39.3526 49.8291H41.0483C41.0441 49.4851 40.9699 49.2219 40.8255 49.0395C40.6811 48.8572 40.483 48.766 40.2313 48.766Z" fill="white"/>
<path d="M49.4167 51.7006C49.2888 52.0778 49.1135 52.3783 48.8907 52.6021C48.6679 52.8259 48.3564 52.9585 47.9562 53L47.8819 52.5834C48.1006 52.5461 48.2739 52.4881 48.4018 52.4093C48.5338 52.3347 48.6369 52.2394 48.7112 52.1234C48.7855 52.0114 48.8535 51.8643 48.9154 51.6819H48.7421L47.6096 48.4054H48.1604L49.0949 51.284L50.017 48.4054H50.5554L49.4167 51.7006Z" fill="white"/>
<path d="M53.5421 48.337C53.9918 48.337 54.3363 48.4903 54.5756 48.7971C54.8191 49.0996 54.9408 49.5141 54.9408 50.0405C54.9408 50.5545 54.817 50.969 54.5695 51.284C54.326 51.5949 53.9815 51.7503 53.5359 51.7503C53.0862 51.7503 52.7397 51.599 52.4962 51.2964C52.2528 50.9897 52.1311 50.5731 52.1311 50.0467C52.1311 49.5286 52.2528 49.1141 52.4962 48.8033C52.7438 48.4924 53.0924 48.337 53.5421 48.337ZM53.5421 48.766C53.2575 48.766 53.045 48.8717 52.9047 49.0831C52.7644 49.2944 52.6943 49.6157 52.6943 50.0467C52.6943 50.4778 52.7624 50.799 52.8985 51.0104C53.0388 51.2177 53.2513 51.3213 53.5359 51.3213C53.8206 51.3213 54.031 51.2177 54.1672 51.0104C54.3075 50.799 54.3776 50.4757 54.3776 50.0405C54.3776 49.6095 54.3075 49.2903 54.1672 49.0831C54.031 48.8717 53.8227 48.766 53.5421 48.766Z" fill="white"/>
<path d="M57.2715 50.7307C57.2715 50.9421 57.3148 51.0975 57.4015 51.197C57.4922 51.2923 57.6325 51.34 57.8223 51.34C57.9956 51.34 58.1627 51.2902 58.3236 51.1907C58.4845 51.0913 58.6124 50.9669 58.7073 50.8177V48.4054H59.2271V51.6819H58.7815L58.7382 51.2405C58.6103 51.4021 58.4515 51.5286 58.2617 51.6197C58.076 51.7068 57.8862 51.7503 57.6923 51.7503C57.3829 51.7503 57.1477 51.6674 56.9868 51.5016C56.83 51.3358 56.7516 51.0975 56.7516 50.7866V48.4054H57.2715V50.7307Z" fill="white"/>
<path d="M63.4082 48.337C63.5403 48.337 63.6929 48.3598 63.8662 48.4054L63.7919 49.5183H63.3711V48.8157H63.3402C62.8368 48.8157 62.4799 49.1763 62.2695 49.8975V51.2778H62.9317V51.6819H61.236V51.2778H61.7497V48.8095H61.236V48.4054H62.1396L62.2386 49.1825C62.3706 48.9007 62.5274 48.6893 62.7089 48.5484C62.8946 48.4074 63.1277 48.337 63.4082 48.337Z" fill="white"/>
<path d="M71.7952 51.6819L71.3682 49.282L70.9103 51.6819H70.1924L69.6045 48.4054H70.1305L70.5513 51.3586L71.0712 48.8219H71.6839L72.1728 51.3586L72.5936 48.4054H73.0949L72.5317 51.6819H71.7952Z" fill="white"/>
<path d="M76.9047 50.9669C76.9047 51.0954 76.9253 51.1907 76.9666 51.2529C77.0078 51.3109 77.0759 51.3545 77.1708 51.3835L77.0408 51.7565C76.7232 51.7151 76.5251 51.5596 76.4467 51.2902C76.3312 51.4394 76.1847 51.5534 76.0073 51.6322C75.834 51.7109 75.6401 51.7503 75.4256 51.7503C75.0997 51.7503 74.8418 51.6591 74.652 51.4767C74.4664 51.2944 74.3735 51.0498 74.3735 50.7431C74.3735 50.4074 74.5035 50.1483 74.7634 49.9659C75.0275 49.7835 75.405 49.6924 75.8959 49.6924H76.3786V49.425C76.3786 49.1929 76.3126 49.0271 76.1806 48.9276C76.0486 48.824 75.8567 48.7722 75.6051 48.7722C75.3575 48.7722 75.0749 48.8281 74.7572 48.9401L74.6149 48.5421C74.9986 48.4054 75.3555 48.337 75.6855 48.337C76.0816 48.337 76.3828 48.4302 76.5891 48.6168C76.7995 48.8033 76.9047 49.0623 76.9047 49.3939V50.9669ZM75.5556 51.3586C75.7165 51.3586 75.8691 51.3172 76.0135 51.2343C76.162 51.1514 76.2838 51.0374 76.3786 50.8923V50.053H75.9083C75.5617 50.053 75.3121 50.111 75.1595 50.2271C75.0068 50.3431 74.9305 50.513 74.9305 50.7369C74.9305 51.1514 75.1389 51.3586 75.5556 51.3586Z" fill="white"/>
<path d="M81.6119 51.514C81.5005 51.5887 81.3643 51.6467 81.2034 51.6881C81.0466 51.7296 80.8898 51.7503 80.7331 51.7503C80.3906 51.7503 80.1224 51.6612 79.9285 51.483C79.7346 51.3006 79.6377 51.0622 79.6377 50.768V48.8157H78.8888V48.4054H79.6377V47.6655L80.1575 47.6033V48.4054H81.29L81.222 48.8157H80.1575V50.7617C80.1575 50.9483 80.207 51.0871 80.306 51.1783C80.4051 51.2695 80.5639 51.3151 80.7826 51.3151C81.0054 51.3151 81.2137 51.2633 81.4076 51.1597L81.6119 51.514Z" fill="white"/>
<path d="M84.9513 51.3027C85.236 51.3027 85.5186 51.2073 85.7992 51.0167L86.0467 51.3586C85.9106 51.4788 85.7414 51.5742 85.5392 51.6446C85.3371 51.7151 85.1411 51.7503 84.9513 51.7503C84.4686 51.7503 84.0911 51.599 83.8188 51.2964C83.5506 50.9897 83.4165 50.5773 83.4165 50.0592C83.4165 49.7317 83.4764 49.4374 83.596 49.1763C83.7198 48.9152 83.8972 48.71 84.1282 48.5608C84.3593 48.4116 84.6336 48.337 84.9513 48.337C85.3722 48.337 85.7352 48.4655 86.0405 48.7224L85.7868 49.0644C85.5021 48.8737 85.2216 48.7784 84.9451 48.7784C84.6522 48.7784 84.417 48.8882 84.2396 49.1079C84.0663 49.3235 83.9797 49.6405 83.9797 50.0592C83.9797 50.4778 84.0663 50.7908 84.2396 50.998C84.417 51.2011 84.6543 51.3027 84.9513 51.3027Z" fill="white"/>
<path d="M88.4455 48.8592C88.5734 48.6934 88.7302 48.5649 88.9158 48.4738C89.1015 48.3826 89.2934 48.337 89.4914 48.337C90.102 48.337 90.4073 48.6603 90.4073 49.3069V51.6819H89.8875V49.3131C89.8875 49.1183 89.8421 48.9774 89.7513 48.8903C89.6606 48.7991 89.5162 48.7535 89.3181 48.7535C89.149 48.7535 88.986 48.8074 88.8292 48.9152C88.6724 49.023 88.5445 49.1494 88.4455 49.2944V51.6819H87.9257V47.0935L88.4455 47.0375V48.8592Z" fill="white"/>
<path d="M93.654 50.8737C93.654 51.1679 93.8334 51.3151 94.1924 51.3151C94.3615 51.3151 94.5431 51.2778 94.737 51.2032L94.8731 51.5824C94.6668 51.6944 94.409 51.7503 94.0995 51.7503C93.8066 51.7503 93.5714 51.6695 93.394 51.5078C93.2207 51.3462 93.1341 51.1265 93.1341 50.8488V47.5038H92.1315V47.0873H93.654V50.8737Z" fill="white"/>
<path d="M98.0703 46.8759C98.1858 46.8759 98.2786 46.9111 98.3487 46.9816C98.4189 47.0479 98.454 47.1349 98.454 47.2427C98.454 47.3505 98.4189 47.4396 98.3487 47.5101C98.2786 47.5764 98.1858 47.6095 98.0703 47.6095C97.9589 47.6095 97.8681 47.5764 97.798 47.5101C97.7319 47.4396 97.6989 47.3505 97.6989 47.2427C97.6989 47.1349 97.7319 47.0479 97.798 46.9816C97.8681 46.9111 97.9589 46.8759 98.0703 46.8759ZM98.4849 51.2654H99.4008V51.6819H96.9625V51.2654H97.965V48.8219H96.9934V48.4054H98.4849V51.2654Z" fill="white"/>
<path d="M102.4 51.3213C102.647 51.3213 102.843 51.2736 102.988 51.1783C103.132 51.083 103.204 50.9566 103.204 50.799C103.204 50.6913 103.186 50.6042 103.149 50.5379C103.112 50.4675 103.037 50.4053 102.926 50.3514C102.815 50.2934 102.645 50.2353 102.418 50.1773C102.039 50.082 101.758 49.968 101.577 49.8354C101.395 49.6986 101.305 49.4975 101.305 49.2323C101.305 48.9587 101.418 48.7411 101.645 48.5794C101.872 48.4178 102.171 48.337 102.542 48.337C102.996 48.337 103.392 48.4572 103.73 48.6976L103.495 49.0582C103.359 48.9629 103.217 48.8903 103.068 48.8406C102.92 48.7867 102.749 48.7598 102.555 48.7598C102.084 48.7598 101.849 48.9028 101.849 49.1887C101.849 49.2882 101.874 49.3691 101.923 49.4312C101.977 49.4934 102.062 49.5494 102.177 49.5991C102.297 49.6447 102.474 49.7006 102.709 49.767C103.064 49.8623 103.328 49.9846 103.501 50.1338C103.679 50.2789 103.768 50.4923 103.768 50.7742C103.768 51.1016 103.636 51.3462 103.372 51.5078C103.107 51.6695 102.784 51.7503 102.4 51.7503C101.888 51.7503 101.463 51.6032 101.125 51.3089L101.416 50.9669C101.548 51.0747 101.699 51.1617 101.868 51.228C102.037 51.2902 102.214 51.3213 102.4 51.3213Z" fill="white"/>
<path d="M108.332 51.514C108.221 51.5887 108.085 51.6467 107.924 51.6881C107.767 51.7296 107.61 51.7503 107.454 51.7503C107.111 51.7503 106.843 51.6612 106.649 51.483C106.455 51.3006 106.358 51.0622 106.358 50.768V48.8157H105.609V48.4054H106.358V47.6655L106.878 47.6033V48.4054H108.011L107.943 48.8157H106.878V50.7617C106.878 50.9483 106.928 51.0871 107.027 51.1783C107.126 51.2695 107.284 51.3151 107.503 51.3151C107.726 51.3151 107.934 51.2633 108.128 51.1597L108.332 51.514Z" fill="white"/>
<path d="M0 0H32.8774L26.1085 24.5781L0 35.167V0Z" fill="#E19A9A"/>
<path d="M20.63 13.6254C21.3313 13.6254 21.9667 13.6875 22.5361 13.8119C23.1054 13.9362 23.6459 14.1103 24.1575 14.3342L23.4891 15.8885C23.0683 15.7061 22.6227 15.5693 22.1524 15.4781C21.682 15.387 21.1952 15.3414 20.6919 15.3414C19.7842 15.3414 19.0993 15.5196 18.6372 15.8761C18.1834 16.2325 17.9565 16.7797 17.9565 17.5174V20.1785H22.3752L22.1524 21.8199H17.9565V32.2526H15.8771V21.8199H12.7703V20.1785H15.8771V17.5672C15.8771 16.7548 16.0833 16.0543 16.4959 15.4657C16.9168 14.8771 17.4861 14.4253 18.204 14.1103C18.9219 13.787 19.7305 13.6254 20.63 13.6254Z" fill="white"/>
<path d="M32.8491 13.8865V29.0196C32.8491 29.6662 33.0472 30.1263 33.4432 30.3998C33.8476 30.6651 34.3674 30.7978 35.0028 30.7978C35.3989 30.7978 35.7743 30.7563 36.1291 30.6734C36.4839 30.5905 36.8388 30.4786 37.1936 30.3377L37.7506 31.8671C37.3957 32.0412 36.9543 32.1946 36.4262 32.3272C35.9063 32.4682 35.3163 32.5386 34.6562 32.5386C33.501 32.5386 32.5644 32.2195 31.8466 31.5812C31.1287 30.9345 30.7697 30.0434 30.7697 28.9077V15.5403H26.7718V13.8865H32.8491Z" fill="white"/>
<path d="M49.2147 19.1588V30.5988H52.8908V32.2526H43.1127V30.5988H47.1353V20.8127H43.2364V19.1588H49.2147ZM47.5561 13.0285C48.0182 13.0285 48.3854 13.1694 48.6577 13.4513C48.9383 13.7331 49.0785 14.0772 49.0785 14.4834C49.0785 14.9062 48.9383 15.2626 48.6577 15.5528C48.3854 15.8346 48.0182 15.9755 47.5561 15.9755C47.1188 15.9755 46.7599 15.8346 46.4793 15.5528C46.1987 15.2626 46.0585 14.9062 46.0585 14.4834C46.0585 14.0772 46.1987 13.7331 46.4793 13.4513C46.7599 13.1694 47.1188 13.0285 47.5561 13.0285Z" fill="white"/>
<path d="M58.7232 32.2526H56.3468L61.1616 25.3389L56.9409 19.1588H59.404L62.424 24.0333L65.4813 19.1588H67.8577L63.6494 25.2519L68.4518 32.2526H65.9021L62.3374 26.6321L58.7232 32.2526Z" fill="white"/>
<path d="M78.1336 18.8853C79.2888 18.8853 80.2089 19.1671 80.8938 19.7308C81.5869 20.2945 82.0861 21.0904 82.3914 22.1183C82.6967 23.138 82.8494 24.3317 82.8494 25.6995C82.8494 27.0176 82.6637 28.1948 82.2924 29.231C81.9293 30.2589 81.3765 31.0672 80.6339 31.6558C79.8912 32.2443 78.9547 32.5386 77.8242 32.5386C76.3967 32.5386 75.2497 32.0329 74.3833 31.0216V37.2638L72.3039 37.525V19.1588H74.0738L74.2471 20.9867C74.7257 20.3153 75.2951 19.7972 75.9552 19.4324C76.6236 19.0676 77.3497 18.8853 78.1336 18.8853ZM77.6385 20.564C76.9206 20.564 76.2853 20.7836 75.7324 21.223C75.1878 21.6541 74.7381 22.1349 74.3833 22.6654V29.1564C74.7216 29.6621 75.1466 30.0641 75.6581 30.3625C76.178 30.6527 76.7474 30.7978 77.3662 30.7978C78.4472 30.7978 79.26 30.3833 79.8046 29.5543C80.3492 28.7253 80.6215 27.4362 80.6215 25.6871C80.6215 24.5431 80.5142 23.5939 80.2997 22.8395C80.0851 22.0769 79.7592 21.509 79.3219 21.136C78.8845 20.7546 78.3234 20.564 77.6385 20.564Z" fill="white"/>
<path d="M92.1104 18.8853C93.3399 18.8853 94.3672 19.1671 95.1923 19.7308C96.0257 20.2863 96.6487 21.0738 97.0613 22.0934C97.4821 23.1131 97.6926 24.3151 97.6926 25.6995C97.6926 27.0342 97.478 28.2155 97.0489 29.2434C96.6199 30.2714 95.9886 31.0796 95.1552 31.6682C94.33 32.2485 93.3068 32.5386 92.0856 32.5386C90.8644 32.5386 89.8371 32.2568 89.0036 31.6931C88.1702 31.1294 87.539 30.3377 87.1099 29.318C86.6891 28.2901 86.4787 27.0922 86.4787 25.7244C86.4787 24.3731 86.6932 23.1835 87.1223 22.1556C87.5514 21.1277 88.1826 20.3277 89.016 19.7557C89.8577 19.1754 90.8891 18.8853 92.1104 18.8853ZM92.1104 20.5888C90.9882 20.5888 90.1382 21.0075 89.5606 21.8447C88.9913 22.6737 88.7066 23.9669 88.7066 25.7244C88.7066 27.4487 88.9871 28.7294 89.5483 29.5667C90.1176 30.404 90.9634 30.8226 92.0856 30.8226C93.2078 30.8226 94.0495 30.404 94.6106 29.5667C95.18 28.7294 95.4646 27.4404 95.4646 25.6995C95.4646 23.9586 95.1841 22.6737 94.623 21.8447C94.0619 21.0075 93.2243 20.5888 92.1104 20.5888Z" fill="white"/>
<path d="M109.788 13.6254L111.867 13.8865V32.2526H110.048L109.85 30.5242C109.363 31.2205 108.802 31.7304 108.167 32.0537C107.539 32.377 106.867 32.5386 106.149 32.5386C105.019 32.5386 104.086 32.2526 103.352 31.6806C102.617 31.1086 102.073 30.3128 101.718 29.2932C101.363 28.2652 101.186 27.0756 101.186 25.7244C101.186 24.4146 101.388 23.2457 101.792 22.2178C102.197 21.1816 102.778 20.3692 103.537 19.7806C104.305 19.1837 105.225 18.8853 106.298 18.8853C107.048 18.8853 107.709 19.0179 108.278 19.2832C108.847 19.5402 109.351 19.9215 109.788 20.4272V13.6254ZM106.842 20.564C105.753 20.564 104.915 20.9909 104.33 21.8447C103.744 22.6986 103.451 23.9918 103.451 25.7244C103.451 26.8518 103.57 27.7968 103.81 28.5595C104.049 29.3222 104.4 29.8942 104.862 30.2755C105.332 30.6568 105.906 30.8475 106.582 30.8475C107.325 30.8475 107.956 30.6361 108.476 30.2133C109.004 29.7905 109.441 29.3139 109.788 28.7833V22.2427C109.433 21.7121 109.004 21.3018 108.501 21.0116C107.997 20.7132 107.445 20.564 106.842 20.564Z" fill="white"/>
<path d="M116.908 35.4585L123 20.4008V40.2186H100.759L116.908 35.4585Z" fill="#E19A9A"/>
</svg>
